STARTFONT 2.1
FONT -Adobe-Utopia-Regular-R-Normal--19-140-100-100-P-105-ISO8859-2
SIZE 14 100 100
FONTBOUNDINGBOX 25 22 -3 -4
STARTPROPERTIES 29
FOUNDRY "Adobe"
FAMILY_NAME "Utopia"
WEIGHT_NAME "Regular"
SLANT "R"
SETWIDTH_NAME "Normal"
ADD_STYLE_NAME ""
PIXEL_SIZE 19
POINT_SIZE 140
RESOLUTION_X 100
RESOLUTION_Y 100
SPACING "P"
AVERAGE_WIDTH 105
CHARSET_REGISTRY "ISO8859"
CHARSET_ENCODING "2"
CAP_HEIGHT 13
X_HEIGHT 10
RELATIVE_SETWIDTH 50
RELATIVE_WEIGHT 50
WEIGHT 136
FACE_NAME "Utopia Regular"
COPYRIGHT "Copyright (c) 1989, 1991 Adobe Systems Incorporated.  All Rights Reserved., Copyright 1996 Cub Soft"
NOTICE "Utopia is a registered trademark of Adobe Systems Incorporated."
DESTINATION 0
FONT_ASCENT 18
FONT_DESCENT 4
DEFAULT_CHAR 32
_ADOBE_PSFONT "Utopia-Regular"
_ADOBE_XFONT "-Adobe-Utopia-Regular-R-Normal--19-140-100-100-P-105-ISO8859-2"
_DEC_DEVICE_FONTNAMES "PS=Utopia-Regular"
ENDPROPERTIES
CHARS 191
STARTCHAR space
ENCODING 32
SWIDTH 225 0
DWIDTH 4 0
BBX 0 0 0 0
BITMAP
ENDCHAR
STARTCHAR exclam
ENCODING 33
SWIDTH 242 0
DWIDTH 5 0
BBX 2 14 1 0
BITMAP
c0
c0
c0
c0
c0
c0
80
80
80
80
00
40
c0
c0
ENDCHAR
STARTCHAR quotedbl
ENCODING 34
SWIDTH 458 0
DWIDTH 9 0
BBX 5 5 2 9
BITMAP
d8
d8
d8
88
88
ENDCHAR
STARTCHAR numbersign
ENCODING 35
SWIDTH 530 0
DWIDTH 10 0
BBX 10 13 0 0
BITMAP
0880
0880
0900
1100
7fc0
1100
1200
3200
ff80
2200
2400
2400
4400
ENDCHAR
STARTCHAR dollar
ENCODING 36
SWIDTH 530 0
DWIDTH 10 0
BBX 9 16 1 -2
BITMAP
0800
3e00
6b00
c900
c800
e800
7800
1e00
0b00
0980
0980
c980
eb00
3c00
0800
0800
ENDCHAR
STARTCHAR percent
ENCODING 37
SWIDTH 838 0
DWIDTH 16 0
BBX 14 14 1 -1
BITMAP
7820
4fe0
8440
8440
8480
4880
7978
0248
0284
0484
0484
0848
0878
1000
ENDCHAR
STARTCHAR ampersand
ENCODING 38
SWIDTH 706 0
DWIDTH 14 0
BBX 13 13 1 0
BITMAP
1c00
2200
6300
6300
2600
3830
2c30
4620
c360
c3c0
c1c0
6170
3e18
ENDCHAR
STARTCHAR apostrophe
ENCODING 39
SWIDTH 278 0
DWIDTH 5 0
BBX 3 5 1 9
BITMAP
40
60
40
40
80
ENDCHAR
STARTCHAR parenleft
ENCODING 40
SWIDTH 350 0
DWIDTH 7 0
BBX 4 17 2 -3
BITMAP
10
20
40
40
80
80
80
80
80
80
80
80
80
40
40
20
10
ENDCHAR
STARTCHAR parenright
ENCODING 41
SWIDTH 350 0
DWIDTH 7 0
BBX 4 17 1 -3
BITMAP
80
40
20
20
10
10
10
10
10
10
10
10
10
20
20
40
80
ENDCHAR
STARTCHAR asterisk
ENCODING 42
SWIDTH 412 0
DWIDTH 8 0
BBX 6 7 1 7
BITMAP
30
94
dc
30
dc
94
30
ENDCHAR
STARTCHAR plus
ENCODING 43
SWIDTH 570 0
DWIDTH 11 0
BBX 9 10 1 0
BITMAP
0800
0800
0800
0800
0800
ff80
0800
0800
0800
0800
ENDCHAR
STARTCHAR comma
ENCODING 44
SWIDTH 265 0
DWIDTH 5 0
BBX 3 5 1 -3
BITMAP
40
60
60
40
80
ENDCHAR
STARTCHAR minus
ENCODING 45
SWIDTH 570 0
DWIDTH 11 0
BBX 9 1 1 4
BITMAP
ff80
ENDCHAR
STARTCHAR period
ENCODING 46
SWIDTH 265 0
DWIDTH 5 0
BBX 2 2 2 0
BITMAP
c0
c0
ENDCHAR
STARTCHAR slash
ENCODING 47
SWIDTH 460 0
DWIDTH 9 0
BBX 5 14 2 0
BITMAP
08
18
10
10
10
20
20
20
20
40
40
40
c0
80
ENDCHAR
STARTCHAR zero
ENCODING 48
SWIDTH 530 0
DWIDTH 10 0
BBX 9 13 1 0
BITMAP
1c00
6300
6300
c180
c180
c180
c180
c180
c180
c180
6300
6300
1c00
ENDCHAR
STARTCHAR one
ENCODING 49
SWIDTH 530 0
DWIDTH 10 0
BBX 6 13 2 0
BITMAP
30
f0
30
30
30
30
30
30
30
30
30
30
fc
ENDCHAR
STARTCHAR two
ENCODING 50
SWIDTH 530 0
DWIDTH 10 0
BBX 8 13 1 0
BITMAP
3c
66
c3
43
03
03
06
0c
18
20
40
c1
ff
ENDCHAR
STARTCHAR three
ENCODING 51
SWIDTH 530 0
DWIDTH 10 0
BBX 9 13 0 0
BITMAP
1e00
6300
4180
0180
0300
3c00
0300
0180
0180
0180
c180
6300
3e00
ENDCHAR
STARTCHAR four
ENCODING 52
SWIDTH 530 0
DWIDTH 10 0
BBX 9 13 1 0
BITMAP
0600
0600
0e00
1600
1600
2600
2600
4600
8600
ff80
0600
0600
1f00
ENDCHAR
STARTCHAR five
ENCODING 53
SWIDTH 530 0
DWIDTH 10 0
BBX 8 13 1 0
BITMAP
7e
40
40
40
40
7c
46
03
03
03
c3
46
3c
ENDCHAR
STARTCHAR six
ENCODING 54
SWIDTH 530 0
DWIDTH 10 0
BBX 9 13 1 0
BITMAP
1c00
3200
6300
4000
c000
de00
e300
c180
c180
c180
4180
6300
1e00
ENDCHAR
STARTCHAR seven
ENCODING 55
SWIDTH 530 0
DWIDTH 10 0
BBX 8 13 1 0
BITMAP
ff
81
03
02
04
08
08
18
10
10
30
30
30
ENDCHAR
STARTCHAR eight
ENCODING 56
SWIDTH 530 0
DWIDTH 10 0
BBX 9 13 1 0
BITMAP
3c00
6600
c300
c300
c300
6600
3c00
6300
4180
c180
c180
6300
3e00
ENDCHAR
STARTCHAR nine
ENCODING 57
SWIDTH 530 0
DWIDTH 10 0
BBX 8 13 1 0
BITMAP
38
66
c2
c3
c3
c3
67
3b
03
02
86
c4
78
ENDCHAR
STARTCHAR colon
ENCODING 58
SWIDTH 265 0
DWIDTH 5 0
BBX 2 10 2 0
BITMAP
c0
c0
80
00
00
00
00
40
c0
c0
ENDCHAR
STARTCHAR semicolon
ENCODING 59
SWIDTH 265 0
DWIDTH 5 0
BBX 3 12 1 -2
BITMAP
60
e0
00
00
00
00
40
60
60
40
40
80
ENDCHAR
STARTCHAR less
ENCODING 60
SWIDTH 570 0
DWIDTH 11 0
BBX 9 10 1 0
BITMAP
0080
0380
0f00
3800
e000
8000
7000
1c00
0700
0180
ENDCHAR
STARTCHAR equal
ENCODING 61
SWIDTH 570 0
DWIDTH 11 0
BBX 9 5 1 2
BITMAP
ff80
0000
0000
0000
ff80
ENDCHAR
STARTCHAR greater
ENCODING 62
SWIDTH 570 0
DWIDTH 11 0
BBX 9 10 1 0
BITMAP
8000
e000
7800
0e00
0380
0080
0700
1c00
7000
c000
ENDCHAR
STARTCHAR question
ENCODING 63
SWIDTH 389 0
DWIDTH 8 0
BBX 7 14 0 0
BITMAP
38
46
c6
06
0c
08
10
30
30
1c
00
00
18
18
ENDCHAR
STARTCHAR at
ENCODING 64
SWIDTH 793 0
DWIDTH 15 0
BBX 14 14 1 0
BITMAP
07c0
1c30
3008
21e8
6644
4c44
ccc4
c884
d988
da90
4ce0
6000
3000
0fc0
ENDCHAR
STARTCHAR A
ENCODING 65
SWIDTH 635 0
DWIDTH 12 0
BBX 13 14 0 0
BITMAP
0200
0700
0700
0500
0980
0980
0980
10c0
1fc0
10c0
2060
2060
6070
f0f8
ENDCHAR
STARTCHAR B
ENCODING 66
SWIDTH 646 0
DWIDTH 13 0
BBX 12 14 0 0
BITMAP
ff80
30c0
3060
3060
3060
30c0
3f80
30e0
3030
3030
3030
3030
3060
ff80
ENDCHAR
STARTCHAR C
ENCODING 67
SWIDTH 684 0
DWIDTH 13 0
BBX 12 14 1 0
BITMAP
07c0
1870
6010
6010
c000
c000
c000
c000
c000
c000
6010
7010
3870
0fc0
ENDCHAR
STARTCHAR D
ENCODING 68
SWIDTH 779 0
DWIDTH 15 0
BBX 14 14 0 0
BITMAP
ffc0
3070
3018
3018
300c
300c
300c
300c
300c
3008
3018
3010
3070
ffc0
ENDCHAR
STARTCHAR E
ENCODING 69
SWIDTH 606 0
DWIDTH 12 0
BBX 12 14 0 0
BITMAP
ffe0
3060
3020
3000
3000
3040
3040
3fc0
3040
3000
3000
3010
3020
ffe0
ENDCHAR
STARTCHAR F
ENCODING 70
SWIDTH 580 0
DWIDTH 11 0
BBX 11 14 0 0
BITMAP
ffe0
3060
3020
3000
3000
3040
3040
3fc0
3040
3000
3000
3000
3000
fc00
ENDCHAR
STARTCHAR G
ENCODING 71
SWIDTH 734 0
DWIDTH 14 0
BBX 13 14 1 0
BITMAP
07c0
3870
7030
6010
c000
c000
c000
c000
c0f8
c030
6030
6030
3830
0fc0
ENDCHAR
STARTCHAR H
ENCODING 72
SWIDTH 798 0
DWIDTH 16 0
BBX 15 14 0 0
BITMAP
fc7e
3018
3018
3018
3018
3018
3018
3ff8
3018
3018
3018
3018
3018
fc7e
ENDCHAR
STARTCHAR I
ENCODING 73
SWIDTH 349 0
DWIDTH 7 0
BBX 6 14 0 0
BITMAP
fc
30
30
30
30
30
30
30
30
30
30
30
30
fc
ENDCHAR
STARTCHAR J
ENCODING 74
SWIDTH 350 0
DWIDTH 7 0
BBX 7 16 0 -2
BITMAP
7e
18
18
18
18
18
18
18
18
18
18
18
18
18
30
e0
ENDCHAR
STARTCHAR K
ENCODING 75
SWIDTH 658 0
DWIDTH 13 0
BBX 13 14 0 0
BITMAP
fcf8
3060
3080
3100
3200
3400
3c00
3600
3700
3380
31c0
30c0
3070
fc18
ENDCHAR
STARTCHAR L
ENCODING 76
SWIDTH 568 0
DWIDTH 11 0
BBX 11 14 0 0
BITMAP
fc00
3000
3000
3000
3000
3000
3000
3000
3000
3000
3020
3020
3040
ffc0
ENDCHAR
STARTCHAR M
ENCODING 77
SWIDTH 944 0
DWIDTH 18 0
BBX 18 14 0 0
BITMAP
f003c0
380700
380700
2c0b00
2c0b00
261300
261300
271300
232300
23a300
21c300
21c300
208300
f88fc0
ENDCHAR
STARTCHAR N
ENCODING 78
SWIDTH 780 0
DWIDTH 15 0
BBX 15 14 0 0
BITMAP
f03e
3808
3c08
2e08
2608
2708
2388
21c8
20c8
20e8
2078
2038
2018
f818
ENDCHAR
STARTCHAR O
ENCODING 79
SWIDTH 762 0
DWIDTH 15 0
BBX 13 14 1 0
BITMAP
0f80
3060
6030
6030
c018
c018
c018
c018
c018
c018
6030
6030
3060
0f80
ENDCHAR
STARTCHAR P
ENCODING 80
SWIDTH 600 0
DWIDTH 12 0
BBX 11 14 0 0
BITMAP
ff00
30c0
3060
3060
3060
3060
3040
30c0
3f00
3000
3000
3000
3000
fc00
ENDCHAR
STARTCHAR Q
ENCODING 81
SWIDTH 762 0
DWIDTH 15 0
BBX 13 18 1 -4
BITMAP
0f80
3060
6030
6030
c018
c018
c018
c018
c018
c018
6030
6030
3060
0f80
0380
0180
00e0
0070
ENDCHAR
STARTCHAR R
ENCODING 82
SWIDTH 644 0
DWIDTH 13 0
BBX 12 14 0 0
BITMAP
ff80
30c0
3060
3060
3060
3040
30c0
3f00
30c0
30c0
30c0
3060
3060
fc30
ENDCHAR
STARTCHAR S
ENCODING 83
SWIDTH 541 0
DWIDTH 11 0
BBX 9 14 1 0
BITMAP
3e00
6300
c100
c100
e000
f000
7c00
1f00
0380
8180
8180
c180
e300
3c00
ENDCHAR
STARTCHAR T
ENCODING 84
SWIDTH 621 0
DWIDTH 12 0
BBX 12 14 0 0
BITMAP
fff0
c630
8610
0600
0600
0600
0600
0600
0600
0600
0600
0600
0600
1f80
ENDCHAR
STARTCHAR U
ENCODING 85
SWIDTH 791 0
DWIDTH 15 0
BBX 15 14 0 0
BITMAP
fc7e
3018
3018
3018
3018
3018
3018
3018
3018
3018
3018
1830
1c70
07c0
ENDCHAR
STARTCHAR V
ENCODING 86
SWIDTH 634 0
DWIDTH 12 0
BBX 14 14 -1 0
BITMAP
f87c
3010
3010
3020
1820
1820
0c40
0c40
0c40
0680
0680
0700
0300
0300
ENDCHAR
STARTCHAR W
ENCODING 87
SWIDTH 940 0
DWIDTH 18 0
BBX 19 14 0 0
BITMAP
f001e0
6040c0
606080
20e080
30e080
313100
313100
193100
191a00
1a1a00
1a1a00
0e0e00
0c0c00
0c0c00
ENDCHAR
STARTCHAR X
ENCODING 88
SWIDTH 624 0
DWIDTH 12 0
BBX 13 14 0 0
BITMAP
f8f0
3060
38c0
1880
0d00
0f00
0600
0700
0b80
0980
10c0
30e0
6060
f8f8
ENDCHAR
STARTCHAR Y
ENCODING 89
SWIDTH 588 0
DWIDTH 11 0
BBX 12 14 0 0
BITMAP
f8f0
3040
3040
1880
1880
0d00
0d00
0600
0600
0600
0600
0600
0600
1f80
ENDCHAR
STARTCHAR Z
ENCODING 90
SWIDTH 610 0
DWIDTH 12 0
BBX 12 14 0 0
BITMAP
7fe0
60e0
40c0
41c0
0380
0300
0600
0e00
1c00
1800
3810
7020
6020
ffe0
ENDCHAR
STARTCHAR bracketleft
ENCODING 91
SWIDTH 330 0
DWIDTH 6 0
BBX 3 17 3 -3
BITMAP
e0
80
80
80
80
80
80
80
80
80
80
80
80
80
80
80
e0
ENDCHAR
STARTCHAR backslash
ENCODING 92
SWIDTH 460 0
DWIDTH 9 0
BBX 5 14 2 0
BITMAP
80
c0
40
40
40
20
20
20
20
10
10
10
18
08
ENDCHAR
STARTCHAR bracketright
ENCODING 93
SWIDTH 330 0
DWIDTH 6 0
BBX 3 17 1 -3
BITMAP
e0
20
20
20
20
20
20
20
20
20
20
20
20
20
20
20
e0
ENDCHAR
STARTCHAR asciicircum
ENCODING 94
SWIDTH 570 0
DWIDTH 11 0
BBX 9 8 1 5
BITMAP
0800
1400
1400
2200
2200
6300
4100
c180
ENDCHAR
STARTCHAR underscore
ENCODING 95
SWIDTH 500 0
DWIDTH 10 0
BBX 10 1 0 -2
BITMAP
ffc0
ENDCHAR
STARTCHAR grave
ENCODING 96
SWIDTH 400 0
DWIDTH 8 0
BBX 4 4 1 10
BITMAP
80
c0
20
10
ENDCHAR
STARTCHAR a
ENCODING 97
SWIDTH 523 0
DWIDTH 10 0
BBX 10 10 1 0
BITMAP
3e00
6200
c300
0300
1f00
6300
c300
c300
4700
7bc0
ENDCHAR
STARTCHAR b
ENCODING 98
SWIDTH 598 0
DWIDTH 12 0
BBX 10 14 1 0
BITMAP
6000
e000
6000
6000
6f00
7180
60c0
60c0
60c0
60c0
60c0
6080
7180
5e00
ENDCHAR
STARTCHAR c
ENCODING 99
SWIDTH 496 0
DWIDTH 10 0
BBX 8 10 1 0
BITMAP
1c
63
43
c0
c0
c0
c0
c1
63
3c
ENDCHAR
STARTCHAR d
ENCODING 100
SWIDTH 598 0
DWIDTH 12 0
BBX 10 14 1 0
BITMAP
0180
0380
0180
0180
1d80
6380
4180
c180
c180
c180
c180
e180
6380
3dc0
ENDCHAR
STARTCHAR e
ENCODING 101
SWIDTH 514 0
DWIDTH 10 0
BBX 8 10 1 0
BITMAP
3c
66
43
c3
ff
c0
c0
c1
62
3c
ENDCHAR
STARTCHAR f
ENCODING 102
SWIDTH 319 0
DWIDTH 6 0
BBX 7 14 1 0
BITMAP
1c
26
60
60
f8
60
60
60
60
60
60
60
60
f8
ENDCHAR
STARTCHAR g
ENCODING 103
SWIDTH 520 0
DWIDTH 10 0
BBX 9 14 1 -4
BITMAP
3d80
6780
c300
c300
c300
6600
3c00
4000
c000
7f00
4180
c180
e300
3c00
ENDCHAR
STARTCHAR h
ENCODING 104
SWIDTH 607 0
DWIDTH 12 0
BBX 10 14 1 0
BITMAP
6000
e000
6000
6000
6f00
7180
6180
6180
6180
6180
6180
6180
6180
f3c0
ENDCHAR
STARTCHAR i
ENCODING 105
SWIDTH 291 0
DWIDTH 6 0
BBX 4 14 1 0
BITMAP
40
e0
00
00
60
e0
60
60
60
60
60
60
60
f0
ENDCHAR
STARTCHAR j
ENCODING 106
SWIDTH 280 0
DWIDTH 5 0
BBX 5 19 -1 -4
BITMAP
18
18
10
00
00
18
38
18
18
18
18
18
18
18
18
18
10
30
c0
ENDCHAR
STARTCHAR k
ENCODING 107
SWIDTH 524 0
DWIDTH 10 0
BBX 10 14 1 0
BITMAP
6000
e000
6000
6000
6380
6600
6c00
7800
7800
7c00
6c00
6600
6380
f1c0
ENDCHAR
STARTCHAR l
ENCODING 108
SWIDTH 279 0
DWIDTH 5 0
BBX 4 14 1 0
BITMAP
60
e0
60
60
60
60
60
60
60
60
60
60
60
f0
ENDCHAR
STARTCHAR m
ENCODING 109
SWIDTH 923 0
DWIDTH 18 0
BBX 16 10 1 0
BITMAP
6f3c
f1c6
6186
6186
6186
6186
6186
6186
6186
f3cf
ENDCHAR
STARTCHAR n
ENCODING 110
SWIDTH 619 0
DWIDTH 12 0
BBX 10 10 1 0
BITMAP
6f00
f180
6180
6180
6180
6180
6180
6180
6180
f3c0
ENDCHAR
STARTCHAR o
ENCODING 111
SWIDTH 577 0
DWIDTH 11 0
BBX 9 10 1 0
BITMAP
3e00
6300
4100
c180
c180
c180
c180
4100
6300
3e00
ENDCHAR
STARTCHAR p
ENCODING 112
SWIDTH 608 0
DWIDTH 12 0
BBX 10 14 1 -4
BITMAP
6f00
f180
60c0
60c0
60c0
60c0
60c0
6080
7180
6e00
6000
6000
6000
f800
ENDCHAR
STARTCHAR q
ENCODING 113
SWIDTH 591 0
DWIDTH 11 0
BBX 10 14 1 -4
BITMAP
1c80
6380
6180
c180
c180
c180
c180
e180
6380
3d80
0180
0180
0180
03c0
ENDCHAR
STARTCHAR r
ENCODING 114
SWIDTH 389 0
DWIDTH 8 0
BBX 7 10 1 0
BITMAP
6e
fc
60
60
60
60
60
60
60
f8
ENDCHAR
STARTCHAR s
ENCODING 115
SWIDTH 436 0
DWIDTH 8 0
BBX 7 10 1 0
BITMAP
38
4c
c4
e0
78
1c
86
86
c4
78
ENDCHAR
STARTCHAR t
ENCODING 116
SWIDTH 344 0
DWIDTH 7 0
BBX 6 12 1 0
BITMAP
20
60
f8
60
60
60
60
60
60
60
60
3c
ENDCHAR
STARTCHAR u
ENCODING 117
SWIDTH 606 0
DWIDTH 12 0
BBX 10 10 1 0
BITMAP
6180
e380
6180
6180
6180
6180
6180
6180
6380
3dc0
ENDCHAR
STARTCHAR v
ENCODING 118
SWIDTH 504 0
DWIDTH 10 0
BBX 10 10 0 0
BITMAP
f3c0
6080
2100
3100
3100
1200
1a00
1a00
0c00
0c00
ENDCHAR
STARTCHAR w
ENCODING 119
SWIDTH 768 0
DWIDTH 15 0
BBX 15 10 0 0
BITMAP
f01e
618c
2188
3288
32c8
32d0
1450
1c50
1c70
0830
ENDCHAR
STARTCHAR x
ENCODING 120
SWIDTH 486 0
DWIDTH 9 0
BBX 10 10 0 0
BITMAP
f3c0
6100
3200
1c00
1c00
0c00
1600
2300
2300
f7c0
ENDCHAR
STARTCHAR y
ENCODING 121
SWIDTH 506 0
DWIDTH 10 0
BBX 10 14 0 -4
BITMAP
f3c0
6180
2100
3100
3200
1200
1a00
0c00
0c00
0c00
0800
0800
4800
7000
ENDCHAR
STARTCHAR z
ENCODING 122
SWIDTH 480 0
DWIDTH 9 0
BBX 9 10 0 0
BITMAP
7f80
6380
4700
0600
0c00
1c00
1800
3080
6080
ff80
ENDCHAR
STARTCHAR braceleft
ENCODING 123
SWIDTH 340 0
DWIDTH 7 0
BBX 4 17 1 -3
BITMAP
10
20
20
20
20
20
20
20
c0
20
20
20
20
20
20
20
10
ENDCHAR
STARTCHAR bar
ENCODING 124
SWIDTH 228 0
DWIDTH 4 0
BBX 1 14 2 0
BITMAP
80
80
80
80
80
80
80
80
80
80
80
80
80
80
ENDCHAR
STARTCHAR braceright
ENCODING 125
SWIDTH 340 0
DWIDTH 7 0
BBX 3 17 2 -3
BITMAP
80
40
40
40
40
40
40
40
20
40
40
40
40
40
40
40
80
ENDCHAR
STARTCHAR asciitilde
ENCODING 126
SWIDTH 570 0
DWIDTH 11 0
BBX 8 3 2 3
BITMAP
21
7e
84
ENDCHAR
STARTCHAR nobreakspace
ENCODING 160
SWIDTH 225 0
DWIDTH 4 0
BBX 0 0 0 0
BITMAP
ENDCHAR
STARTCHAR Aogonek
ENCODING 161
SWIDTH 635 0
DWIDTH 12 0
BBX 13 19 0 -5
BITMAP
0200
0700
0700
0500
0980
0980
0980
10c0
1fc0
10c0
2060
2060
6070
f0f8
0200
0200
0400
0400
0300
ENDCHAR
STARTCHAR breve
ENCODING 162
SWIDTH 400 0
DWIDTH 8 0
BBX 6 3 1 11
BITMAP
84
84
78
ENDCHAR
STARTCHAR Lstroke
ENCODING 163
SWIDTH 574 0
DWIDTH 11 0
BBX 11 14 1 0
BITMAP
fc00
3000
3000
3000
3200
3400
3800
3000
7000
b000
3020
3020
3040
ffc0
ENDCHAR
STARTCHAR currency
ENCODING 164
SWIDTH 530 0
DWIDTH 10 0
BBX 8 9 1 2
BITMAP
bd
42
83
81
81
81
83
42
bd
ENDCHAR
STARTCHAR Lcaron
ENCODING 165
SWIDTH 568 0
DWIDTH 11 0
BBX 11 15 0 0
BITMAP
0080
fcc0
3080
3080
3100
3000
3000
3000
3000
3000
3000
3020
3020
3040
ffc0
ENDCHAR
STARTCHAR Sacute
ENCODING 166
SWIDTH 541 0
DWIDTH 11 0
BBX 9 19 1 0
BITMAP
0200
0600
0800
1000
0000
3e00
6300
c100
c100
e000
f000
7c00
1f00
0380
8180
8180
c180
e300
3c00
ENDCHAR
STARTCHAR section
ENCODING 167
SWIDTH 554 0
DWIDTH 11 0
BBX 9 16 1 -2
BITMAP
1e00
2300
2000
2000
5800
8c00
8700
c100
6180
3880
1c80
0700
0200
4200
6200
3c00
ENDCHAR
STARTCHAR diaeresis
ENCODING 168
SWIDTH 400 0
DWIDTH 8 0
BBX 6 2 1 11
BITMAP
cc
cc
ENDCHAR
STARTCHAR Scaron
ENCODING 169
SWIDTH 541 0
DWIDTH 11 0
BBX 9 19 1 0
BITMAP
8400
4800
3000
1000
0000
3e00
6300
c100
c100
e000
f000
7c00
1f00
0380
8180
8180
c180
e300
3c00
ENDCHAR
STARTCHAR Scedilla
ENCODING 170
SWIDTH 541 0
DWIDTH 11 0
BBX 9 18 1 -4
BITMAP
3e00
6300
c100
c100
e000
f000
7c00
1f00
0380
8180
8180
c180
e300
3c00
0c00
0c00
0600
1c00
ENDCHAR
STARTCHAR Tcaron
ENCODING 171
SWIDTH 621 0
DWIDTH 12 0
BBX 12 19 0 0
BITMAP
2100
1200
0c00
0400
0000
fff0
c630
8610
0600
0600
0600
0600
0600
0600
0600
0600
0600
0600
1f80
ENDCHAR
STARTCHAR Zacute
ENCODING 172
SWIDTH 610 0
DWIDTH 12 0
BBX 12 19 0 0
BITMAP
0080
0180
0200
0400
0000
7fe0
60e0
40c0
41c0
0380
0300
0600
0e00
1c00
1800
3810
7020
6020
ffe0
ENDCHAR
STARTCHAR hyphen
ENCODING 173
SWIDTH 392 0
DWIDTH 8 0
BBX 5 1 1 4
BITMAP
f8
ENDCHAR
STARTCHAR Zcaron
ENCODING 174
SWIDTH 610 0
DWIDTH 12 0
BBX 12 19 0 0
BITMAP
2100
1200
0c00
0400
0000
7fe0
60e0
40c0
41c0
0380
0300
0600
0e00
1c00
1800
3810
7020
6020
ffe0
ENDCHAR
STARTCHAR Zabovedot
ENCODING 175
SWIDTH 610 0
DWIDTH 12 0
BBX 12 17 0 0
BITMAP
0600
0600
0000
7fe0
60e0
40c0
41c0
0380
0300
0600
0e00
1c00
1800
3810
7020
6020
ffe0
ENDCHAR
STARTCHAR degree
ENCODING 176
SWIDTH 350 0
DWIDTH 7 0
BBX 5 5 1 8
BITMAP
70
88
88
88
70
ENDCHAR
STARTCHAR aogonek
ENCODING 177
SWIDTH 523 0
DWIDTH 10 0
BBX 10 15 1 -5
BITMAP
3e00
6200
c300
0300
1f00
6300
c300
c300
4700
7bc0
0800
0800
1000
1000
0c00
ENDCHAR
STARTCHAR ogonek
ENCODING 178
SWIDTH 400 0
DWIDTH 8 0
BBX 3 5 2 -4
BITMAP
40
40
80
80
60
ENDCHAR
STARTCHAR lstroke
ENCODING 179
SWIDTH 294 0
DWIDTH 6 0
BBX 6 14 0 0
BITMAP
30
70
30
30
34
38
30
70
b0
30
30
30
30
78
ENDCHAR
STARTCHAR acute
ENCODING 180
SWIDTH 400 0
DWIDTH 8 0
BBX 4 4 3 10
BITMAP
10
30
40
80
ENDCHAR
STARTCHAR lcaron
ENCODING 181
SWIDTH 411 0
DWIDTH 8 0
BBX 7 15 1 0
BITMAP
04
66
e4
64
68
60
60
60
60
60
60
60
60
60
f0
ENDCHAR
STARTCHAR sacute
ENCODING 182
SWIDTH 436 0
DWIDTH 8 0
BBX 7 15 1 0
BITMAP
02
06
08
10
00
38
4c
c4
e0
78
1c
86
86
c4
78
ENDCHAR
STARTCHAR caron
ENCODING 183
SWIDTH 400 0
DWIDTH 8 0
BBX 6 4 1 10
BITMAP
84
48
30
10
ENDCHAR
STARTCHAR cedilla
ENCODING 184
SWIDTH 400 0
DWIDTH 8 0
BBX 4 4 3 -4
BITMAP
60
60
30
e0
ENDCHAR
STARTCHAR scaron
ENCODING 185
SWIDTH 436 0
DWIDTH 8 0
BBX 7 15 1 0
BITMAP
84
48
30
10
00
38
4c
c4
e0
78
1c
86
86
c4
78
ENDCHAR
STARTCHAR scedilla
ENCODING 186
SWIDTH 436 0
DWIDTH 8 0
BBX 7 14 1 -4
BITMAP
38
4c
c4
e0
78
1c
86
86
c4
78
18
18
0c
38
ENDCHAR
STARTCHAR tcaron
ENCODING 187
SWIDTH 411 0
DWIDTH 8 0
BBX 7 16 1 0
BITMAP
04
06
04
04
28
60
f8
60
60
60
60
60
60
60
60
3c
ENDCHAR
STARTCHAR zacute
ENCODING 188
SWIDTH 480 0
DWIDTH 9 0
BBX 9 15 0 0
BITMAP
0100
0300
0400
0800
0000
7f80
6380
4700
0600
0c00
1c00
1800
3080
6080
ff80
ENDCHAR
STARTCHAR doubleacute
ENCODING 189
SWIDTH 400 0
DWIDTH 8 0
BBX 5 4 2 11
BITMAP
48
58
d0
a0
ENDCHAR
STARTCHAR zcaron
ENCODING 190
SWIDTH 480 0
DWIDTH 9 0
BBX 9 15 0 0
BITMAP
4200
2400
1800
0800
0000
7f80
6380
4700
0600
0c00
1c00
1800
3080
6080
ff80
ENDCHAR
STARTCHAR zabovedot
ENCODING 191
SWIDTH 480 0
DWIDTH 9 0
BBX 9 13 0 0
BITMAP
0c00
0c00
0000
7f80
6380
4700
0600
0c00
1c00
1800
3080
6080
ff80
ENDCHAR
STARTCHAR Racute
ENCODING 192
SWIDTH 644 0
DWIDTH 13 0
BBX 12 19 0 0
BITMAP
0080
0180
0200
0400
0000
ff80
30c0
3060
3060
3060
3040
30c0
3f00
30c0
30c0
30c0
3060
3060
fc30
ENDCHAR
STARTCHAR Aacute
ENCODING 193
SWIDTH 635 0
DWIDTH 12 0
BBX 14 17 -1 0
BITMAP
0080
01c0
0600
0300
0300
0580
0580
0580
08c0
08c0
08e0
1fe0
1060
3070
2030
2038
f07c
ENDCHAR
STARTCHAR Acircumflex
ENCODING 194
SWIDTH 635 0
DWIDTH 12 0
BBX 13 17 0 0
BITMAP
0200
0700
08c0
0200
0700
0700
0500
0980
0980
0980
10c0
1fc0
10c0
2060
2060
6070
f0f8
ENDCHAR
STARTCHAR Abreve
ENCODING 195
SWIDTH 635 0
DWIDTH 12 0
BBX 13 18 0 0
BITMAP
0840
0840
0780
0000
0200
0700
0700
0500
0980
0980
0980
10c0
1fc0
10c0
2060
2060
6070
f0f8
ENDCHAR
STARTCHAR Adiaeresis
ENCODING 196
SWIDTH 635 0
DWIDTH 12 0
BBX 13 16 -1 0
BITMAP
0cc0
0cc0
0300
0300
0700
0580
0580
0980
08c0
08c0
1fc0
1060
1060
2020
2030
f8f8
ENDCHAR
STARTCHAR Lacute
ENCODING 197
SWIDTH 568 0
DWIDTH 11 0
BBX 11 19 0 0
BITMAP
0400
0c00
1000
2000
0000
fc00
3000
3000
3000
3000
3000
3000
3000
3000
3000
3020
3020
3040
ffc0
ENDCHAR
STARTCHAR Cacute
ENCODING 198
SWIDTH 684 0
DWIDTH 13 0
BBX 12 19 1 0
BITMAP
0040
00c0
0100
0200
0000
07c0
1870
6010
6010
c000
c000
c000
c000
c000
c000
6010
7010
3870
0fc0
ENDCHAR
STARTCHAR Ccedilla
ENCODING 199
SWIDTH 680 0
DWIDTH 13 0
BBX 12 18 1 -4
BITMAP
07c0
1830
7010
6010
c000
c000
c000
c000
c000
c000
6010
7030
3870
0fc0
0200
0300
0180
0700
ENDCHAR
STARTCHAR Ccaron
ENCODING 200
SWIDTH 684 0
DWIDTH 13 0
BBX 12 19 1 0
BITMAP
1080
0900
0600
0200
0000
07c0
1870
6010
6010
c000
c000
c000
c000
c000
c000
6010
7010
3870
0fc0
ENDCHAR
STARTCHAR Eacute
ENCODING 201
SWIDTH 606 0
DWIDTH 12 0
BBX 12 17 0 0
BITMAP
0100
0380
0c00
ffe0
3060
3020
3000
3000
3040
3040
3fc0
3040
3000
3000
3010
3020
ffe0
ENDCHAR
STARTCHAR Eogonek
ENCODING 202
SWIDTH 606 0
DWIDTH 12 0
BBX 12 19 0 -5
BITMAP
ffe0
3060
3020
3000
3000
3040
3040
3fc0
3040
3000
3000
3010
3020
ffe0
0400
0400
0800
0800
0600
ENDCHAR
STARTCHAR Ediaeresis
ENCODING 203
SWIDTH 606 0
DWIDTH 12 0
BBX 12 16 0 0
BITMAP
1980
1980
ffe0
3060
3020
3000
3000
3040
3040
3fc0
3040
3000
3000
3010
3020
ffe0
ENDCHAR
STARTCHAR Ecaron
ENCODING 204
SWIDTH 606 0
DWIDTH 12 0
BBX 12 19 0 0
BITMAP
2100
1200
0c00
0400
0000
ffe0
3060
3020
3000
3000
3040
3040
3fc0
3040
3000
3000
3010
3020
ffe0
ENDCHAR
STARTCHAR Iacute
ENCODING 205
SWIDTH 349 0
DWIDTH 7 0
BBX 6 17 0 0
BITMAP
04
1c
60
fc
30
30
30
30
30
30
30
30
30
30
30
30
fc
ENDCHAR
STARTCHAR Icircumflex
ENCODING 206
SWIDTH 349 0
DWIDTH 7 0
BBX 6 17 0 0
BITMAP
10
78
84
fc
30
30
30
30
30
30
30
30
30
30
30
30
fc
ENDCHAR
STARTCHAR Dcaron
ENCODING 207
SWIDTH 779 0
DWIDTH 15 0
BBX 14 19 0 0
BITMAP
1080
0900
0600
0200
0000
ffc0
3070
3018
3018
300c
300c
300c
300c
300c
3008
3018
3010
3070
ffc0
ENDCHAR
STARTCHAR Dstroke
ENCODING 208
SWIDTH 785 0
DWIDTH 15 0
BBX 13 14 1 0
BITMAP
ff80
30e0
3030
3030
3018
3018
3018
fc18
3018
3010
3010
3020
3060
ff80
ENDCHAR
STARTCHAR Nacute
ENCODING 209
SWIDTH 780 0
DWIDTH 15 0
BBX 15 19 0 0
BITMAP
0020
0060
0080
0100
0000
f03e
3808
3c08
2e08
2608
2708
2388
21c8
20c8
20e8
2078
2038
2018
f818
ENDCHAR
STARTCHAR Ncaron
ENCODING 210
SWIDTH 780 0
DWIDTH 15 0
BBX 15 19 0 0
BITMAP
0840
0480
0300
0100
0000
f03e
3808
3c08
2e08
2608
2708
2388
21c8
20c8
20e8
2078
2038
2018
f818
ENDCHAR
STARTCHAR Oacute
ENCODING 211
SWIDTH 762 0
DWIDTH 15 0
BBX 13 17 1 0
BITMAP
0080
0380
0c00
0f80
3060
6030
6030
c018
c018
c018
c018
c018
c018
6030
6030
3060
0f80
ENDCHAR
STARTCHAR Ocircumflex
ENCODING 212
SWIDTH 762 0
DWIDTH 15 0
BBX 13 17 1 0
BITMAP
0200
0700
18c0
0f80
3060
6030
6030
c018
c018
c018
c018
c018
c018
6030
6030
3060
0f80
ENDCHAR
STARTCHAR Odoubleacute
ENCODING 213
SWIDTH 762 0
DWIDTH 15 0
BBX 13 19 1 0
BITMAP
0240
02c0
0680
0500
0000
0f80
3060
6030
6030
c018
c018
c018
c018
c018
c018
6030
6030
3060
0f80
ENDCHAR
STARTCHAR Odiaeresis
ENCODING 214
SWIDTH 762 0
DWIDTH 15 0
BBX 13 16 1 0
BITMAP
1980
1980
0f80
3060
6030
6030
c018
c018
c018
c018
c018
c018
6030
6030
3060
0f80
ENDCHAR
STARTCHAR multiply
ENCODING 215
SWIDTH 570 0
DWIDTH 11 0
BBX 9 9 1 0
BITMAP
8080
4100
2200
1400
0800
1400
2200
4100
8080
ENDCHAR
STARTCHAR Rcaron
ENCODING 216
SWIDTH 644 0
DWIDTH 13 0
BBX 12 19 0 0
BITMAP
2100
1200
0c00
0400
0000
ff80
30c0
3060
3060
3060
3040
30c0
3f00
30c0
30c0
30c0
3060
3060
fc30
ENDCHAR
STARTCHAR Uring
ENCODING 217
SWIDTH 791 0
DWIDTH 15 0
BBX 15 19 0 0
BITMAP
0180
0240
0240
0180
0000
fc7e
3018
3018
3018
3018
3018
3018
3018
3018
3018
3018
1830
1c70
07c0
ENDCHAR
STARTCHAR Uacute
ENCODING 218
SWIDTH 791 0
DWIDTH 15 0
BBX 15 17 0 0
BITMAP
0040
01c0
0300
fc7e
3018
3018
3018
3018
3018
3018
3018
3018
3018
3018
1830
1c70
07c0
ENDCHAR
STARTCHAR Udoubleacute
ENCODING 219
SWIDTH 791 0
DWIDTH 15 0
BBX 15 19 0 0
BITMAP
0120
0160
0340
0280
0000
fc7e
3018
3018
3018
3018
3018
3018
3018
3018
3018
3018
1830
1c70
07c0
ENDCHAR
STARTCHAR Udiaeresis
ENCODING 220
SWIDTH 791 0
DWIDTH 15 0
BBX 15 16 0 0
BITMAP
0660
0660
fc3e
3018
3018
3018
3018
3018
3018
3018
3018
3018
3018
1830
1c70
07c0
ENDCHAR
STARTCHAR Yacute
ENCODING 221
SWIDTH 588 0
DWIDTH 11 0
BBX 12 17 0 0
BITMAP
0080
01c0
0600
f8f0
3040
3040
1880
1880
0d00
0d00
0600
0600
0600
0600
0600
0600
1f80
ENDCHAR
STARTCHAR Tcedilla
ENCODING 222
SWIDTH 621 0
DWIDTH 12 0
BBX 12 18 0 -4
BITMAP
fff0
c630
8610
0600
0600
0600
0600
0600
0600
0600
0600
0600
0600
1f80
0600
0600
0300
0e00
ENDCHAR
STARTCHAR ssharp
ENCODING 223
SWIDTH 601 0
DWIDTH 12 0
BBX 10 14 1 0
BITMAP
1e00
3300
2180
6180
6200
6400
6c00
6e00
6700
6380
60c0
60c0
6c80
f700
ENDCHAR
STARTCHAR racute
ENCODING 224
SWIDTH 389 0
DWIDTH 8 0
BBX 7 15 1 0
BITMAP
02
06
08
10
00
6e
fc
60
60
60
60
60
60
60
f8
ENDCHAR
STARTCHAR aacute
ENCODING 225
SWIDTH 523 0
DWIDTH 10 0
BBX 10 14 1 0
BITMAP
0300
0600
1800
0000
3e00
6200
c300
0300
1f00
6300
c300
c300
4700
7bc0
ENDCHAR
STARTCHAR acircumflex
ENCODING 226
SWIDTH 523 0
DWIDTH 10 0
BBX 10 14 1 0
BITMAP
0800
1c00
2200
4100
3e00
6200
c300
0300
1f00
6300
c300
c300
c700
7bc0
ENDCHAR
STARTCHAR abreve
ENCODING 227
SWIDTH 523 0
DWIDTH 10 0
BBX 10 14 1 0
BITMAP
4200
4200
3c00
0000
3e00
6200
c300
0300
1f00
6300
c300
c300
4700
7bc0
ENDCHAR
STARTCHAR adiaeresis
ENCODING 228
SWIDTH 523 0
DWIDTH 10 0
BBX 10 13 1 0
BITMAP
6600
6600
0000
3e00
6200
c300
0300
1f00
6300
c300
c300
4700
7bc0
ENDCHAR
STARTCHAR lacute
ENCODING 229
SWIDTH 279 0
DWIDTH 5 0
BBX 5 19 1 0
BITMAP
08
18
20
40
00
60
e0
60
60
60
60
60
60
60
60
60
60
60
f0
ENDCHAR
STARTCHAR cacute
ENCODING 230
SWIDTH 496 0
DWIDTH 10 0
BBX 8 15 1 0
BITMAP
01
03
04
08
00
1c
63
43
c0
c0
c0
c0
c1
63
3c
ENDCHAR
STARTCHAR ccedilla
ENCODING 231
SWIDTH 496 0
DWIDTH 10 0
BBX 8 14 1 -4
BITMAP
3c
67
43
c0
c0
c0
c0
c1
62
3c
10
18
0c
18
ENDCHAR
STARTCHAR ccaron
ENCODING 232
SWIDTH 496 0
DWIDTH 10 0
BBX 8 15 1 0
BITMAP
42
24
18
08
00
1c
63
43
c0
c0
c0
c0
c1
63
3c
ENDCHAR
STARTCHAR eacute
ENCODING 233
SWIDTH 514 0
DWIDTH 10 0
BBX 8 14 1 0
BITMAP
06
0c
10
00
3c
66
43
c3
ff
c0
c0
c1
62
3c
ENDCHAR
STARTCHAR eogonek
ENCODING 234
SWIDTH 514 0
DWIDTH 10 0
BBX 8 15 1 -5
BITMAP
3c
66
43
c3
ff
c0
c0
c1
62
3c
10
10
20
20
18
ENDCHAR
STARTCHAR ediaeresis
ENCODING 235
SWIDTH 514 0
DWIDTH 10 0
BBX 8 13 1 0
BITMAP
66
66
00
3c
66
43
c3
ff
c0
c0
c1
62
3c
ENDCHAR
STARTCHAR ecaron
ENCODING 236
SWIDTH 514 0
DWIDTH 10 0
BBX 8 15 1 0
BITMAP
84
48
30
10
00
3c
66
43
c3
ff
c0
c0
c1
62
3c
ENDCHAR
STARTCHAR iacute
ENCODING 237
SWIDTH 291 0
DWIDTH 6 0
BBX 4 14 1 0
BITMAP
30
70
c0
00
60
e0
60
60
60
60
60
60
60
f0
ENDCHAR
STARTCHAR icircumflex
ENCODING 238
SWIDTH 291 0
DWIDTH 6 0
BBX 6 14 0 0
BITMAP
20
70
cc
00
30
70
30
30
30
30
30
30
30
78
ENDCHAR
STARTCHAR dcaron
ENCODING 239
SWIDTH 771 0
DWIDTH 15 0
BBX 13 15 1 0
BITMAP
0010
0198
0390
0190
01a0
1d80
6380
4180
c180
c180
c180
c180
e180
6380
3dc0
ENDCHAR
STARTCHAR dstroke
ENCODING 240
SWIDTH 720 0
DWIDTH 14 0
BBX 12 14 1 0
BITMAP
0180
0180
0ff0
0180
1d80
6380
4180
c180
c180
c180
c180
e180
6380
3dc0
ENDCHAR
STARTCHAR nacute
ENCODING 241
SWIDTH 619 0
DWIDTH 12 0
BBX 10 15 1 0
BITMAP
0100
0300
0400
0800
0000
6f00
f180
6180
6180
6180
6180
6180
6180
6180
f3c0
ENDCHAR
STARTCHAR ncaron
ENCODING 242
SWIDTH 619 0
DWIDTH 12 0
BBX 10 15 1 0
BITMAP
4200
2400
1800
0800
0000
6f00
f180
6180
6180
6180
6180
6180
6180
6180
f3c0
ENDCHAR
STARTCHAR oacute
ENCODING 243
SWIDTH 577 0
DWIDTH 11 0
BBX 9 14 1 0
BITMAP
0600
0c00
1800
0000
3e00
6300
4100
c180
c180
c180
c180
4100
6300
3e00
ENDCHAR
STARTCHAR ocircumflex
ENCODING 244
SWIDTH 577 0
DWIDTH 11 0
BBX 9 14 1 0
BITMAP
0800
1c00
2200
0000
3e00
6300
4100
c180
c180
c180
c180
4100
6300
3e00
ENDCHAR
STARTCHAR odoubleacute
ENCODING 245
SWIDTH 577 0
DWIDTH 11 0
BBX 9 15 1 0
BITMAP
0900
0b00
1a00
1400
0000
3e00
6300
4100
c180
c180
c180
c180
4100
6300
3e00
ENDCHAR
STARTCHAR odiaeresis
ENCODING 246
SWIDTH 577 0
DWIDTH 11 0
BBX 9 13 1 0
BITMAP
3300
3300
0000
3e00
6300
4100
c180
c180
c180
c180
4100
6300
3e00
ENDCHAR
STARTCHAR division
ENCODING 247
SWIDTH 570 0
DWIDTH 11 0
BBX 9 9 2 1
BITMAP
1800
1800
0000
0000
ff80
0000
0000
1800
1800
ENDCHAR
STARTCHAR rcaron
ENCODING 248
SWIDTH 389 0
DWIDTH 8 0
BBX 7 15 1 0
BITMAP
84
48
30
10
00
6e
fc
60
60
60
60
60
60
60
f8
ENDCHAR
STARTCHAR uring
ENCODING 249
SWIDTH 606 0
DWIDTH 12 0
BBX 10 15 1 0
BITMAP
0c00
1200
1200
0c00
0000
6180
e380
6180
6180
6180
6180
6180
6180
6380
3dc0
ENDCHAR
STARTCHAR uacute
ENCODING 250
SWIDTH 606 0
DWIDTH 12 0
BBX 10 14 1 0
BITMAP
0300
0600
1800
0000
6180
e380
6180
6180
6180
6180
6180
6180
6380
3dc0
ENDCHAR
STARTCHAR udoubleacute
ENCODING 251
SWIDTH 606 0
DWIDTH 12 0
BBX 10 15 1 0
BITMAP
0900
0b00
1a00
1400
0000
6180
e380
6180
6180
6180
6180
6180
6180
6380
3dc0
ENDCHAR
STARTCHAR udiaeresis
ENCODING 252
SWIDTH 606 0
DWIDTH 12 0
BBX 10 13 1 0
BITMAP
3300
3300
0000
6180
e380
6180
6180
6180
6180
6180
6180
6380
3dc0
ENDCHAR
STARTCHAR yacute
ENCODING 253
SWIDTH 506 0
DWIDTH 10 0
BBX 10 18 0 -4
BITMAP
0300
0600
0800
0000
f3c0
6180
2100
3100
3200
1200
1a00
0c00
0c00
0c00
0800
0800
4800
7000
ENDCHAR
STARTCHAR tcedilla
ENCODING 254
SWIDTH 344 0
DWIDTH 7 0
BBX 6 16 1 -4
BITMAP
20
60
f8
60
60
60
60
60
60
60
60
3c
30
30
18
70
ENDCHAR
STARTCHAR abovedot
ENCODING 255
SWIDTH 400 0
DWIDTH 8 0
BBX 2 2 3 11
BITMAP
c0
c0
ENDCHAR
ENDFONT
